<?xml version="1.0" standalone="no"?>
<!DOCTYPE svg PUBLIC "-//W3C//DTD SVG 20010904//EN"
 "http://www.w3.org/TR/2001/REC-SVG-20010904/DTD/svg10.dtd">
<svg version="1.0" xmlns="http://www.w3.org/2000/svg"
 width="512.000000pt" height="512.000000pt" viewBox="0 0 512.000000 512.000000"
 preserveAspectRatio="xMidYMid meet">
<metadata>
Created by potrace 1.11, written by Peter Selinger 2001-2013
</metadata>
<g transform="translate(0.000000,512.000000) scale(0.100000,-0.100000)"
fill="#000000" stroke="none">
<path d="M180 4149 l0 -780 343 3 c333 3 344 4 402 27 100 40 170 96 219 174
27 44 56 174 56 251 0 176 -74 297 -212 347 l-57 21 49 25 c119 59 176 179
168 352 -7 150 -60 246 -167 304 -89 49 -156 57 -493 57 l-308 0 0 -781z m568
520 c58 -28 81 -78 82 -171 0 -148 -54 -196 -232 -206 l-98 -5 0 202 0 201
102 0 c84 0 110 -4 146 -21z m19 -627 c28 -15 51 -38 70 -69 25 -43 28 -57 28
-138 -1 -96 -12 -130 -57 -172 -40 -38 -95 -54 -204 -60 l-104 -6 0 238 0 238
113 -5 c89 -4 120 -9 154 -26z"/>
<path d="M1370 4363 c0 -317 5 -598 10 -636 27 -182 105 -294 245 -346 118
-44 334 -47 472 -6 103 31 195 123 242 243 l26 67 3 623 3 622 -161 0 -160 0
0 -593 c0 -500 -2 -601 -15 -644 -44 -149 -248 -165 -317 -25 l-23 47 -3 608
-3 607 -160 0 -159 0 0 -567z"/>
<path d="M2570 4150 l0 -780 160 0 160 0 0 331 0 331 113 -3 c135 -5 170 -20
205 -91 21 -42 24 -66 32 -270 6 -164 12 -234 23 -261 l16 -37 175 0 c158 0
205 7 162 23 -36 14 -47 64 -57 275 -11 220 -27 315 -60 369 -22 36 -80 73
-143 93 l-40 13 54 20 c69 25 132 90 159 162 86 230 19 478 -152 558 -89 42
-139 47 -482 47 l-325 0 0 -780z m579 520 c53 -26 77 -61 92 -127 10 -42 10
-71 2 -119 -22 -126 -79 -166 -245 -172 l-108 -4 0 221 0 221 110 0 c91 0 118
-4 149 -20z"/>
<path d="M3780 4150 l0 -780 145 0 145 0 2 543 3 542 190 -540 191 -540 182
-3 182 -2 0 780 0 780 -145 0 -145 0 -2 -532 -3 -533 -189 533 -190 532 -183
0 -183 0 0 -780z"/>
<path d="M3283 3235 c-135 -37 -242 -124 -282 -229 -33 -88 -45 -194 -32 -289
27 -199 132 -301 406 -398 217 -76 274 -131 275 -264 0 -118 -69 -185 -189
-185 -132 0 -189 57 -198 201 l-6 79 -158 0 -159 0 0 -52 c0 -141 41 -262 113
-336 84 -87 193 -122 382 -122 255 0 421 74 494 220 41 84 54 156 49 280 -5
125 -30 190 -98 257 -59 60 -131 100 -312 178 -86 37 -177 79 -201 95 -57 36
-81 86 -82 170 0 108 49 164 152 177 106 12 172 -48 188 -174 l7 -53 150 0
151 0 -5 83 c-7 112 -36 184 -101 250 -89 91 -200 127 -382 126 -61 0 -133 -7
-162 -14z"/>
<path d="M100 3090 l0 -130 170 0 170 0 0 -650 0 -650 160 0 160 0 0 650 0
650 168 2 167 3 3 128 3 127 -501 0 -500 0 0 -130z"/>
<path d="M1230 2440 l0 -780 160 0 160 0 0 345 0 345 180 0 180 0 0 -345 0
-345 160 0 160 0 0 780 0 780 -160 0 -160 0 0 -295 0 -295 -180 0 -180 0 0
295 0 295 -160 0 -160 0 0 -780z"/>
<path d="M2460 2440 l0 -780 155 0 155 0 0 780 0 780 -155 0 -155 0 0 -780z"/>
</g>
</svg>
