<?xml version="1.0" standalone="no"?>
<!DOCTYPE svg PUBLIC "-//W3C//DTD SVG 20010904//EN"
 "http://www.w3.org/TR/2001/REC-SVG-20010904/DTD/svg10.dtd">
<svg version="1.0" xmlns="http://www.w3.org/2000/svg"
 width="512.000000pt" height="512.000000pt" viewBox="0 0 512.000000 512.000000"
 preserveAspectRatio="xMidYMid meet">
<metadata>
Created by potrace 1.11, written by Peter Selinger 2001-2013
</metadata>
<g transform="translate(0.000000,512.000000) scale(0.100000,-0.100000)"
fill="#000000" stroke="none">
<path d="M0 2560 l0 -2560 2560 0 2560 0 0 2560 0 2560 -2560 0 -2560 0 0
-2560z m863 2355 c127 -27 206 -87 255 -194 37 -80 43 -222 14 -318 -26 -84
-80 -150 -152 -186 l-49 -25 57 -21 c138 -50 212 -171 212 -347 0 -77 -29
-207 -56 -251 -49 -78 -119 -134 -219 -174 -58 -23 -69 -24 -402 -27 l-343 -3
0 780 0 781 308 0 c228 0 324 -4 375 -15z m829 -592 l3 -608 23 -47 c69 -140
273 -124 317 25 13 43 15 144 15 644 l0 593 160 0 161 0 -3 -622 -3 -623 -26
-67 c-47 -120 -139 -212 -242 -243 -138 -41 -354 -38 -472 6 -140 52 -218 164
-245 346 -5 38 -10 319 -10 636 l0 567 159 0 160 0 3 -607z m1580 596 c84 -18
153 -55 202 -110 98 -108 120 -309 55 -484 -27 -72 -90 -137 -159 -162 l-54
-20 40 -13 c158 -50 185 -112 203 -462 10 -211 21 -261 57 -275 43 -16 -4 -23
-162 -23 l-175 0 -16 37 c-11 27 -17 97 -23 261 -8 204 -11 228 -32 270 -35
71 -70 86 -205 91 l-113 3 0 -331 0 -331 -160 0 -160 0 0 780 0 780 325 0
c200 0 344 -4 377 -11z m1064 -521 l189 -533 3 533 2 532 145 0 145 0 0 -780
0 -780 -182 2 -182 3 -191 540 -190 540 -3 -542 -2 -543 -145 0 -145 0 0 780
0 780 183 0 183 0 190 -532z m-719 -1163 c93 -22 152 -53 210 -112 65 -66 94
-138 101 -250 l5 -83 -151 0 -150 0 -7 53 c-16 126 -82 186 -188 174 -103 -13
-152 -69 -152 -177 1 -84 25 -134 82 -170 24 -16 115 -58 201 -95 181 -78 253
-118 312 -178 68 -67 93 -132 98 -257 5 -124 -8 -196 -49 -280 -73 -146 -239
-220 -494 -220 -189 0 -298 35 -382 122 -72 74 -113 195 -113 336 l0 52 159 0
158 0 6 -79 c9 -144 66 -201 198 -201 120 0 189 67 189 185 -1 133 -58 188
-275 264 -206 73 -320 154 -370 264 -52 113 -54 290 -4 423 40 105 147 192
282 229 69 18 256 19 334 0z m-2519 -142 l-3 -128 -167 -3 -168 -2 0 -650 0
-650 -160 0 -160 0 0 650 0 650 -170 0 -170 0 0 130 0 130 500 0 501 0 -3
-127z m452 -168 l0 -295 180 0 180 0 0 295 0 295 160 0 160 0 0 -780 0 -780
-160 0 -160 0 0 345 0 345 -180 0 -180 0 0 -345 0 -345 -160 0 -160 0 0 780 0
780 160 0 160 0 0 -295z m1220 -485 l0 -780 -155 0 -155 0 0 780 0 780 155 0
155 0 0 -780z"/>
<path d="M500 4489 l0 -202 98 5 c178 10 232 58 232 206 -1 147 -55 192 -228
192 l-102 0 0 -201z"/>
<path d="M500 3835 l0 -238 104 6 c109 6 164 22 204 60 45 42 56 76 57 172 0
81 -3 95 -28 138 -42 71 -85 89 -224 95 l-113 5 0 -238z"/>
<path d="M2890 4469 l0 -221 108 4 c166 6 223 46 245 172 13 75 -2 159 -35
201 -39 50 -86 65 -208 65 l-110 0 0 -221z"/>
</g>
</svg>
