<?xml version="1.0" encoding="utf-8"?>
<!-- Generator: Adobe Illustrator 23.0.1, SVG Export Plug-In . SVG Version: 6.00 Build 0)  -->
<svg version="1.1" id="ELEMENTS" xmlns="http://www.w3.org/2000/svg" xmlns:xlink="http://www.w3.org/1999/xlink" x="0px" y="0px"
	 viewBox="0 0 36.93 36.93" style="enable-background:new 0 0 36.93 36.93;" xml:space="preserve">
<style type="text/css">
	.st0{fill:#B39001;}
</style>
<g>
	<g>
		<path class="st0" d="M26.95,0H9.98C4.48,0,0,4.48,0,9.98v16.97c0,5.5,4.48,9.98,9.98,9.98h16.97c5.5,0,9.98-4.48,9.98-9.98V9.98
			C36.93,4.48,32.45,0,26.95,0z M33.94,26.95c0,3.86-3.14,6.99-6.99,6.99H9.98c-3.86,0-6.99-3.14-6.99-6.99V9.98
			c0-3.86,3.14-6.99,6.99-6.99h16.97c3.86,0,6.99,3.14,6.99,6.99V26.95z"/>
	</g>
	<g>
		<path class="st0" d="M24.39,12.53c-1.27-1.27-2.87-2.07-4.64-2.34c-0.81-0.12-1.62-0.12-2.43,0c-2.19,0.32-4.12,1.48-5.44,3.26
			s-1.86,3.96-1.54,6.15c0.32,2.19,1.48,4.12,3.26,5.44c1.44,1.07,3.15,1.63,4.92,1.63c0.41,0,0.82-0.03,1.23-0.09
			c2.19-0.32,4.12-1.48,5.44-3.26s1.86-3.96,1.54-6.15C26.46,15.4,25.66,13.8,24.39,12.53z M19.31,23.63
			c-1.4,0.21-2.8-0.14-3.93-0.99c-1.14-0.84-1.88-2.08-2.08-3.48s0.14-2.8,0.99-3.93c0.84-1.14,2.08-1.88,3.48-2.08
			c0.26-0.04,0.52-0.06,0.78-0.06c0.26,0,0.52,0.02,0.78,0.06c2.32,0.34,4.12,2.14,4.46,4.46C24.2,20.5,22.2,23.2,19.31,23.63z"/>
	</g>
	<g>
		<path class="st0" d="M27.8,7.64c-0.39,0-0.78,0.16-1.05,0.44c-0.28,0.28-0.44,0.66-0.44,1.05s0.16,0.78,0.44,1.05
			c0.28,0.28,0.66,0.44,1.05,0.44s0.78-0.16,1.05-0.44c0.28-0.28,0.44-0.66,0.44-1.05s-0.16-0.78-0.44-1.05
			C28.57,7.8,28.19,7.64,27.8,7.64z"/>
	</g>
</g>
</svg>
