<?xml version="1.0" encoding="utf-8"?>
<!-- Generator: Adobe Illustrator 23.0.1, SVG Export Plug-In . SVG Version: 6.00 Build 0)  -->
<svg version="1.1" id="Layer_1" xmlns="http://www.w3.org/2000/svg" xmlns:xlink="http://www.w3.org/1999/xlink" x="0px" y="0px"
	 viewBox="0 0 290 82" style="enable-background:new 0 0 290 82;" xml:space="preserve">
<style type="text/css">
	.st0{fill:#FFFFFF;}
	.st1{fill:#808080;}
	.st2{fill:#2B2B2B;}
</style>
<g>
	<path class="st0" d="M140.77,25.88c-2.1,0-3.83,0.66-5.3,2.01c-1.81,1.64-2.81,3.96-2.81,6.54c0,2.19,0.71,4.13,2.12,5.75
		c1.52,1.72,3.27,2.49,5.69,2.49c2.61,0,4.54-0.88,6.07-2.76c1.27-1.58,1.92-3.5,1.92-5.7C148.46,29.3,145.3,25.88,140.77,25.88z
		 M144.41,34.18c0,2.79-0.1,3.97-0.45,5.06c-0.72,2.31-2.01,2.63-3.29,2.63c-1.3,0-2.73-0.3-3.47-2.55
		c-0.34-0.97-0.51-2.8-0.51-5.47c0-3.47,0.3-7.18,3.87-7.18C144.13,26.69,144.41,29.79,144.41,34.18z"/>
	<path class="st0" d="M115.03,27.43c-1.56-1.12-2.99-1.17-4.5-1.21h-8.1V27h1.85v14.52h-1.85v0.81h8.17c1.85,0,4.64,0,6.4-3.48
		c0.67-1.33,1-2.75,1-4.35C118,31.34,116.95,28.83,115.03,27.43z M113.81,38.43c-0.47,2.73-2.1,3.09-3.64,3.09h-2.36V27.07h2.72
		c0.98,0,2,0.11,2.75,1.44c0.2,0.36,0.57,1.03,0.75,3.72l0.02,0.34c0.02,0.51,0.05,1.14,0.05,1.84
		C114.11,35.98,114.01,37.25,113.81,38.43z"/>
	<path class="st0" d="M126.08,32.17c-1.26-0.36-2.53-0.74-2.97-1.07c-0.57-0.41-0.91-1.07-0.91-1.75c0-1.55,1.16-2.63,2.83-2.63
		c0.66,0,1.92,0.19,2.87,1.42c0.59,0.81,0.75,1.58,0.91,2.35l0.02,0.08h0.9V26.1h-0.66l-0.74,0.81c-0.77-0.48-1.65-1.03-3.21-1.03
		c-1.53,0-2.64,0.43-3.59,1.41c-0.97,0.99-1.43,2.18-1.43,3.74c0,3.23,2.38,3.95,4.9,4.72l0.99,0.29c1.35,0.43,2.88,0.91,2.88,2.77
		c0,1.67-1.39,2.92-3.24,2.92c-1.23,0-2.48-0.56-3.33-1.5c-0.73-0.79-1.02-1.65-1.26-2.35l-0.05-0.14h-0.83v4.59h0.8l0.74-0.98
		c0.93,0.63,2.01,1.32,3.99,1.32c1.77,0,3.08-0.56,4.11-1.77c0.81-0.97,1.26-2.24,1.26-3.56c0-2-0.92-3.1-1.31-3.47
		C128.95,33.07,127.5,32.59,126.08,32.17z"/>
	<polygon class="st0" points="77.91,27 79.99,27 79.99,33.56 74.57,33.56 74.57,27 76.69,27 76.69,26.22 69.1,26.22 69.1,27 
		71.04,27 71.04,41.54 69.1,41.54 69.1,42.33 76.69,42.33 76.69,41.54 74.57,41.54 74.57,34.46 79.99,34.46 79.99,41.54 
		77.91,41.54 77.91,42.33 85.44,42.33 85.44,41.54 83.5,41.54 83.5,27 85.44,27 85.44,26.22 77.91,26.22 	"/>
	<path class="st0" d="M96.83,27l0.97,0.02c0.86,0.04,0.9,0.21,0.9,1.52v7.96c0,2.16,0,3.14-0.79,4.04
		c-0.63,0.72-1.61,1.09-2.92,1.09c-1.53,0-2.65-0.66-3.06-1.81c-0.24-0.59-0.24-1.32-0.24-2.33V27h2.14v-0.79H86.3V27h1.89v10.13
		c-0.02,2.08-0.04,3.45,1.81,4.57c1.31,0.79,3.04,0.96,4.27,0.96c0.62,0,2.52,0,3.94-1.15c1.49-1.21,1.48-2.55,1.46-4.76v-7.89
		c0.02-1.75,0.06-1.82,1-1.86h0.69v-0.79h-4.53V27z"/>
	<path class="st0" d="M225.72,26.28l-0.02-0.07h-0.88l-5.03,13.81l-0.02,0.06c-0.54,1.35-0.55,1.37-1.44,1.45h-1.09v0.79h5.16v-0.79
		h-1.2c-0.58,0-0.78-0.03-0.78-0.31c0-0.21,0.09-0.46,0.2-0.8l0.85-2.41h4.89l1.26,3.52h-2.08v0.79h7.41v-0.79h-1.74L225.72,26.28z
		 M226.05,37.24h-4.31l2.13-5.92L226.05,37.24z"/>
	<path class="st0" d="M160.35,27h0.8c0.6,0,0.88,0.05,1.02,0.19c0.15,0.15,0.15,0.46,0.14,0.94v8.06l-7.51-9.95l-0.03-0.04h-5.31V27
		l0.88,0.03c1,0.04,1.01,0.3,1.03,1.3v11.92c-0.02,1-0.14,1.26-1,1.3h-0.91v0.79h5.11v-0.79h-1.24c-0.77-0.04-0.99-0.33-1.01-1.34
		V28.63l10.21,13.77l0.03,0.04h0.69V28.66c0.01-0.81,0.04-1.31,0.25-1.51c0.13-0.12,0.34-0.16,0.73-0.15h0.82v-0.79h-4.71V27z"/>
	<path class="st0" d="M231.63,26.22l-0.34,5.01l-0.01,0.11h0.88l0.01-0.09c0.1-1.05,0.28-2.26,1.19-3.23
		c0.92-0.94,1.89-0.98,3.5-0.94v14.48h-2.21v0.79h7.93v-0.79h-2.19V27.07c1.86-0.02,2.89,0.04,3.81,1.22
		c0.79,1.04,0.91,2.19,0.99,2.95l0.01,0.09h0.88l-0.45-5.11H231.63z"/>
	<path class="st0" d="M276.11,37.1l-0.05,0.17c-0.33,1.3-0.79,3.08-2.38,3.85c-0.75,0.38-1.59,0.39-2.47,0.41l-2.54,0v-6.97h0.51
		c0.92,0.02,1.87,0.04,2.44,0.95c0.34,0.54,0.39,1.27,0.43,2l0.01,0.09h0.8v-6.62h-0.8l-0.01,0.09c-0.15,1.92-0.41,2.55-2.9,2.61
		h-0.49v-6.63h3.3c0.91,0.04,2.15,0.1,2.89,1.39c0.23,0.41,0.36,0.86,0.61,1.75l0.08,0.26h0.75l-0.35-4.26h-12.7V27h1.89v14.54
		h-1.89v0.79h13.27l0.33-5.23H276.11z"/>
	<path class="st0" d="M261.35,41.41c-0.92,0-0.98-0.75-1.03-2.29c-0.07-2.15-0.3-3.09-1.48-4.13c-0.39-0.34-0.83-0.62-1.31-0.83
		c-0.33-0.13-0.69-0.24-1.05-0.33c0.34-0.04,0.68-0.08,1.01-0.15c2-0.42,3.19-1.73,3.19-3.52c0-1.48-0.68-2.66-1.92-3.31
		c-1.01-0.53-2.25-0.57-3.44-0.61l-8.15-0.01v0.81h1.92v14.52h-1.92v0.79h7.68v-0.79h-2.23v-7.42h1.09c1.5,0,2.41,0.37,2.6,2.23
		c0.09,0.77,0.14,1.22,0.16,1.84c0.02,0.99,0.15,2.24,0.92,3.17c0.86,1.05,1.86,1.05,2.4,1.05c1.1,0,1.89-0.22,2.8-0.5l0.07-0.02
		v-0.88l-0.14,0.07C262.2,41.23,261.76,41.41,261.35,41.41z M252.62,27.07h1.79c2.14,0.04,2.7,0.66,2.7,3.01
		c0,1.57-0.22,2.06-0.39,2.29c-0.57,0.89-1.62,0.92-2.25,0.94l-1.84,0V27.07z"/>
	<path class="st0" d="M170.64,26.22l-0.35,5.11h0.87l0.01-0.09c0.1-1.05,0.28-2.26,1.19-3.23c0.92-0.94,1.89-0.98,3.5-0.94v14.48
		h-2.21v0.79h7.93v-0.79h-2.19V27.07c1.86-0.02,2.89,0.04,3.81,1.22c0.79,1.03,0.91,2.19,0.99,2.95l0.01,0.09h0.87l-0.45-5.11
		H170.64z"/>
	<path class="st0" d="M216.12,37.27c-0.33,1.3-0.79,3.08-2.38,3.85c-0.75,0.37-1.58,0.39-2.47,0.41l-2.54,0v-6.97h0.51
		c0.92,0.02,1.87,0.04,2.44,0.95c0.34,0.54,0.39,1.27,0.44,2l0.01,0.09h0.8v-6.62h-0.8l-0.01,0.09c-0.16,1.92-0.41,2.55-2.9,2.61
		h-0.49v-6.63h3.3c0.91,0.04,2.15,0.1,2.89,1.39c0.23,0.41,0.36,0.86,0.61,1.75l0.08,0.26h0.75l-0.35-4.26h-12.7V27h1.89v14.54
		h-1.89v0.79h13.27l0.33-5.23h-0.72L216.12,37.27z"/>
	<polygon class="st0" points="194.66,27 196.74,27 196.74,33.56 191.32,33.56 191.32,27 193.44,27 193.44,26.22 185.85,26.22 
		185.85,27 187.79,27 187.79,41.54 185.85,41.54 185.85,42.33 193.44,42.33 193.44,41.54 191.32,41.54 191.32,34.46 196.74,34.46 
		196.74,41.54 194.66,41.54 194.66,42.33 202.19,42.33 202.19,41.54 200.25,41.54 200.25,27 202.19,27 202.19,26.22 194.66,26.22 	
		"/>
</g>
<polygon points="10.97,55.95 10.97,26.58 36.69,11.9 62.41,26.58 62.41,55.95 36.69,70.63 "/>
<g>
	<g>
		<path class="st1" d="M36.69,71.43L10.27,56.35V26.18L36.69,11.1l26.42,15.08v30.17L36.69,71.43z M11.66,55.54l25.03,14.29
			l25.03-14.29V26.98L36.69,12.69L11.66,26.98V55.54z"/>
	</g>
</g>
<polygon class="st2" points="20.95,50.25 20.95,32.28 36.69,23.29 52.43,32.28 52.43,50.25 36.69,59.24 "/>
<g>
	<path class="st1" d="M36.69,60.04l-16.44-9.38V31.87l16.44-9.38l16.44,9.38v18.78L36.69,60.04z M21.64,49.85l15.05,8.59l15.05-8.59
		V32.68l-15.05-8.59l-15.05,8.59V49.85z"/>
</g>
<path class="st1" d="M136.73,56.72h0.9v-3.13l3.28-4.76h-1.04l-2.68,3.94l-2.66-3.94h-1.08l3.28,4.77V56.72z M127.88,53.84l1.8-4.02
	l1.79,4.02H127.88z M125.68,56.72h0.91l0.94-2.08h4.29l0.92,2.08h0.96l-3.59-7.94h-0.83L125.68,56.72z M116.73,56.78h0.74l2.17-6.4
	l2.16,6.4h0.76l2.82-7.94h-0.94l-2.25,6.57l-2.16-6.59h-0.73l-2.16,6.59l-2.25-6.57h-0.97L116.73,56.78z M106.87,55.9v-6.24h1.85
	c1.99,0,3.27,1.37,3.27,3.12v0.02c0,1.75-1.27,3.1-3.27,3.1H106.87z M105.98,56.72h2.74c2.48,0,4.19-1.72,4.19-3.94v-0.02
	c0-2.22-1.71-3.92-4.19-3.92h-2.74V56.72z M98.47,53.84l1.8-4.02l1.79,4.02H98.47z M96.27,56.72h0.91l0.94-2.08h4.29l0.92,2.08h0.96
	l-3.59-7.94h-0.83L96.27,56.72z M91.41,56.04c-1.8,0-3.11-1.47-3.11-3.26v-0.02c0-1.79,1.28-3.23,3.09-3.23
	c1.8,0,3.11,1.47,3.11,3.26v0.02C94.5,54.59,93.21,56.04,91.41,56.04 M91.39,56.86c2.4,0,4.03-1.9,4.03-4.08v-0.02
	c0-2.18-1.61-4.06-4.01-4.06c-2.4,0-4.03,1.9-4.03,4.08v0.02C87.38,54.98,88.99,56.86,91.39,56.86 M80.42,52.86v-3.2h2.43
	c1.27,0,2.02,0.59,2.02,1.56v0.02c0,1.01-0.85,1.62-2.03,1.62H80.42z M79.53,56.72h0.89v-3.07h2.25l2.29,3.07h1.09l-2.42-3.22
	c1.24-0.23,2.14-0.99,2.14-2.3v-0.02c0-0.62-0.23-1.17-0.61-1.56c-0.5-0.5-1.27-0.79-2.24-0.79h-3.39V56.72z M72.01,55.92v-2.78
	h2.49c1.37,0,2.1,0.5,2.1,1.35v0.02c0,0.88-0.74,1.41-1.94,1.41H72.01z M72.01,52.35v-2.72h2.4c1.13,0,1.75,0.51,1.75,1.28v0.02
	c0,0.92-0.74,1.41-1.81,1.41H72.01z M71.13,56.72h3.5c1.72,0,2.86-0.8,2.86-2.15v-0.02c0-1.08-0.76-1.62-1.69-1.9
	c0.62-0.27,1.25-0.8,1.25-1.83V50.8c0-0.51-0.18-0.92-0.51-1.26c-0.45-0.44-1.16-0.7-2.06-0.7h-3.36V56.72z"/>
<path class="st0" d="M275.51,56.69c0.63,0,1.14-0.42,1.14-1.02v-0.01c0-0.62-0.53-0.91-1.12-0.96l1.07-1.19v-0.28h-2.17v0.34h1.66
	l-1.07,1.21l0.08,0.23h0.22c0.56,0,0.95,0.23,0.95,0.66v0.01c0,0.4-0.33,0.66-0.74,0.66c-0.42,0-0.73-0.18-1-0.51l-0.28,0.25
	C274.52,56.44,274.94,56.69,275.51,56.69 M272.26,56.34c-0.64,0-1.04-0.67-1.04-1.41v-0.01c0-0.75,0.4-1.4,1.03-1.4
	c0.63,0,1.04,0.67,1.04,1.41v0.01C273.29,55.68,272.9,56.34,272.26,56.34 M272.25,56.69c0.87,0,1.44-0.81,1.44-1.76v-0.01
	c0-0.95-0.55-1.75-1.43-1.75c-0.87,0-1.44,0.81-1.44,1.76v0.01C270.82,55.89,271.37,56.69,272.25,56.69 M268.74,55.06
	c-0.5,0-0.84-0.31-0.84-0.74v-0.01c0-0.42,0.31-0.8,0.82-0.8c0.51,0,0.86,0.34,0.86,0.77v0.01
	C269.58,54.68,269.26,55.06,268.74,55.06 M268.64,56.69c0.84,0,1.41-0.76,1.41-1.84v-0.01c0-0.68-0.16-1.06-0.42-1.32
	c-0.22-0.22-0.51-0.35-0.89-0.35c-0.72,0-1.22,0.51-1.22,1.15v0.01c0,0.61,0.48,1.05,1.18,1.05c0.47,0,0.78-0.25,0.96-0.54
	c0.01,0.87-0.4,1.49-1.01,1.49c-0.3,0-0.56-0.12-0.83-0.36l-0.22,0.3C267.87,56.51,268.2,56.69,268.64,56.69 M266.2,56.63h0.38
	v-3.42h-0.28l-0.83,0.29l0.09,0.31l0.64-0.2V56.63z M264.06,56.63h0.45v-0.51h-0.45V56.63z M262.88,56.67
	c0.18,0,0.32-0.04,0.45-0.11v-0.32c-0.13,0.06-0.24,0.09-0.36,0.09c-0.25,0-0.42-0.11-0.42-0.42v-1.47h0.8v-0.33h-0.8v-0.76h-0.37
	v0.76h-0.35v0.33h0.35v1.51C262.17,56.47,262.47,56.67,262.88,56.67 M260.36,56.68c0.5,0,0.89-0.28,0.89-0.75v-0.01
	c0-0.45-0.42-0.6-0.81-0.72c-0.34-0.1-0.65-0.19-0.65-0.43v-0.01c0-0.21,0.19-0.36,0.49-0.36c0.24,0,0.51,0.09,0.74,0.24l0.17-0.28
	c-0.26-0.17-0.6-0.28-0.9-0.28c-0.5,0-0.85,0.29-0.85,0.72v0.01c0,0.46,0.44,0.6,0.83,0.71c0.33,0.09,0.63,0.19,0.63,0.44v0.01
	c0,0.24-0.22,0.4-0.52,0.4c-0.3,0-0.6-0.12-0.87-0.32l-0.19,0.27C259.61,56.54,260,56.68,260.36,56.68 M256.21,56.63h2.48v-0.35
	h-2.1v-1.19h1.85v-0.35h-1.85v-1.16h2.07v-0.35h-2.46V56.63z"/>
</svg>
