<?xml version="1.0" encoding="utf-8"?>
<!-- Generator: Adobe Illustrator 23.0.1, SVG Export Plug-In . SVG Version: 6.00 Build 0)  -->
<svg version="1.1" id="ELEMENTS" xmlns="http://www.w3.org/2000/svg" xmlns:xlink="http://www.w3.org/1999/xlink" x="0px" y="0px"
	 viewBox="0 0 36.42 29.78" style="enable-background:new 0 0 36.42 29.78;" xml:space="preserve">
<style type="text/css">
	.st0{fill:#B39001;}
</style>
<g>
	<g>
		<path class="st0" d="M32.7,7.42c0.01,0.32,0.02,0.65,0.02,0.98c0,9.93-7.51,21.39-21.26,21.39c-4.22,0-8.15-1.24-11.46-3.38
			c0.59,0.07,1.18,0.11,1.78,0.11c3.5,0,6.72-1.2,9.28-3.22c-3.27-0.06-6.03-2.24-6.98-5.22c0.45,0.08,0.92,0.13,1.4,0.13
			c0.68,0,1.34-0.09,1.97-0.26c-3.42-0.69-6-3.73-6-7.37c0-0.03,0-0.06,0.01-0.1c1,0.57,2.16,0.9,3.39,0.94
			c-2.01-1.34-3.33-3.65-3.33-6.26c0-1.37,0.37-2.67,1.01-3.78c3.68,4.55,9.19,7.54,15.4,7.86c-0.13-0.55-0.19-1.12-0.19-1.72
			c0-4.15,3.35-7.52,7.47-7.52c2.15,0,4.09,0.91,5.45,2.37c1.71-0.33,3.3-0.96,4.75-1.82c-0.56,1.76-1.74,3.23-3.29,4.16
			c1.51-0.18,2.96-0.58,4.29-1.18C35.42,5.03,34.15,6.35,32.7,7.42z"/>
	</g>
</g>
</svg>
